<svg width="24" height="24" viewBox="0 0 24 24" fill="none" xmlns="http://www.w3.org/2000/svg">
<path fill-rule="evenodd" clip-rule="evenodd" d="M4.14705 18.3038C3.9292 18.5974 3.9534 19.0141 4.21967 19.2803C4.51256 19.5732 4.98744 19.5732 5.28033 19.2803L11.75 12.8107L18.2197 19.2803C18.5126 19.5732 18.9874 19.5732 19.2803 19.2803C19.5466 19.0141 19.5708 18.5974 19.3529 18.3038L19.2803 18.2197L12.811 11.75L19.2803 5.28033C19.5466 5.01406 19.5708 4.5974 19.3529 4.30379L19.2803 4.21967C19.0141 3.9534 18.5974 3.9292 18.3038 4.14705L18.2197 4.21967L11.75 10.6893L5.28033 4.21967L5.19621 4.14705C4.9026 3.9292 4.48594 3.9534 4.21967 4.21967L4.14705 4.30379C3.9292 4.5974 3.9534 5.01406 4.21967 5.28033L10.689 11.75L4.21967 18.2197L4.14705 18.3038Z" fill="#E1492E"/>
</svg>
