<svg xmlns="http://www.w3.org/2000/svg" version="1.1"  width="32" height="32" viewBox="0 0 24 24" style="shape-rendering:geometricPrecision; text-rendering:geometricPrecision; image-rendering:optimizeQuality; fill-rule:evenodd; clip-rule:evenodd" xmlns:xlink="http://www.w3.org/1999/xlink">
<g><path style="opacity:1" fill="#e4e3df" d="M 105.5,25.5 C 127.903,23.1013 148.569,27.9347 167.5,40C 171.487,42.9869 175.153,46.3203 178.5,50C 174.364,55.3034 169.697,60.1368 164.5,64.5C 142.345,44.9293 117.679,41.0959 90.5,53C 62.4125,70.9151 52.5791,96.0817 61,128.5C 76.574,164.485 103.407,177.319 141.5,167C 149.669,163.754 157.002,159.254 163.5,153.5C 168.652,158.152 173.652,162.985 178.5,168C 147.733,194.221 114.067,198.554 77.5,181C 40.8659,155.191 29.0326,120.691 42,77.5C 54.7378,49.5875 75.9044,32.2542 105.5,25.5 Z"/></g>
<g><path style="opacity:1" fill="#e6e6e2" d="M 192.5,77.5 C 192.5,84.5 192.5,91.5 192.5,98.5C 199.5,98.5 206.5,98.5 213.5,98.5C 213.5,105.167 213.5,111.833 213.5,118.5C 206.5,118.5 199.5,118.5 192.5,118.5C 192.5,125.5 192.5,132.5 192.5,139.5C 185.833,139.5 179.167,139.5 172.5,139.5C 172.5,132.5 172.5,125.5 172.5,118.5C 165.5,118.5 158.5,118.5 151.5,118.5C 151.5,111.833 151.5,105.167 151.5,98.5C 158.5,98.5 165.5,98.5 172.5,98.5C 172.5,91.5 172.5,84.5 172.5,77.5C 179.167,77.5 185.833,77.5 192.5,77.5 Z"/></g>
<g><path style="opacity:1" fill="#e5e5e1" d="M 245.5,77.5 C 252.167,77.5 258.833,77.5 265.5,77.5C 265.5,84.5 265.5,91.5 265.5,98.5C 272.5,98.5 279.5,98.5 286.5,98.5C 286.5,105.167 286.5,111.833 286.5,118.5C 279.5,118.5 272.5,118.5 265.5,118.5C 265.5,125.5 265.5,132.5 265.5,139.5C 258.833,139.5 252.167,139.5 245.5,139.5C 245.5,132.5 245.5,125.5 245.5,118.5C 238.5,118.5 231.5,118.5 224.5,118.5C 223.167,111.833 223.167,105.167 224.5,98.5C 231.5,98.5 238.5,98.5 245.5,98.5C 245.5,91.5 245.5,84.5 245.5,77.5 Z"/></g>
</svg>
